# 3ds Max Wavefront OBJ Exporter v0.94b - (c)2007 guruware
# File Created: 22.07.2017 20:35:02

#
# object Pawn
#

v  9.063077926636 0.000003814697 -4.226182937622
v  8.191520690918 0.000000442270 5.735765457153
v  7.012289524078 26.095825195313 0.613504111767
v  -0.871557712555 0.000000442270 9.961948394775
v  2.974843740463 26.095825195313 6.379573822021
v  -9.063077926636 0.000003814698 4.226181983948
v  -4.037442207336 26.095825195313 5.766077041626
v  -8.191520690918 0.000007187125 -5.735765457153
v  -7.012279987335 26.095829010010 -0.613488256931
v  0.871562242508 0.000007187124 -9.961946487427
v  -2.974834442139 26.095829010010 -6.379556179047
v  4.037453174591 26.095829010010 -5.766058921814
v  -7.810407638550 33.532634735107 -5.468903064728
v  0.831016063690 33.532634735107 -9.498463630676
v  8.641432762146 33.532630920410 -4.029546737671
v  7.810421466827 33.532627105713 5.468923568726
v  -0.831005096436 33.532627105713 9.498485565186
v  -8.641419410706 33.532630920410 4.029571056366
v  -3.089863061905 36.402702331543 -6.626240730286
v  4.193572998047 36.402698516846 -5.989020824432
v  7.283444404602 36.402698516846 0.637234210968
v  3.089877843857 36.402694702148 6.626264095306
v  -4.193562984467 36.402698516846 5.989044666290
v  -7.283432960510 36.402698516846 -0.637208700180
v  0.000006197944 37.364749908447 0.000012575086
# 25 vertices

g Pawn
f 3 2 1 
f 5 4 2 
f 7 6 4 
f 9 8 6 
f 11 10 8 
f 12 1 10 
f 10 1 2 
f 10 2 4 
f 10 4 6 
f 8 10 6 
f 9 11 8 
f 11 12 10 
f 12 3 1 
f 3 5 2 
f 5 7 4 
f 7 9 6 
f 13 11 9 
f 14 12 11 
f 15 3 12 
f 16 5 3 
f 17 7 5 
f 18 9 7 
f 14 15 12 
f 15 16 3 
f 16 17 5 
f 17 18 7 
f 18 13 9 
f 13 14 11 
f 19 14 13 
f 20 15 14 
f 21 16 15 
f 22 17 16 
f 23 18 17 
f 24 13 18 
f 19 20 14 
f 20 21 15 
f 21 22 16 
f 22 23 17 
f 23 24 18 
f 24 19 13 
f 25 20 19 
f 25 21 20 
f 25 22 21 
f 25 23 22 
f 25 24 23 
f 25 19 24 
# 46 faces

