# 3ds Max Wavefront OBJ Exporter v0.94b - (c)2007 guruware
# File Created: 22.07.2017 20:36:02

#
# object Rook
#

v  10.672405242920 -0.000003814697 8.955216407776
v  -2.419243335724 -0.000008513109 13.720182418823
v  3.000204801559 32.356052398682 8.243034362793
v  -13.091649055481 -0.000008513109 4.764965534210
v  -5.638571739197 32.356048583984 6.719783306122
v  -10.672406196594 -0.000003814697 -8.955218315125
v  -8.638782501221 32.356052398682 -1.523242831230
v  2.419242382050 0.000000883715 -13.720183372498
v  -3.000219106674 32.356052398682 -8.243014335632
v  13.091650009155 0.000000883713 -4.764960289001
v  5.638554573059 32.356056213379 -6.719762325287
v  8.638767242432 32.356052398682 1.523266434669
v  6.601200580597 42.200820922852 5.539095878601
v  -1.496387004852 42.200817108154 8.486371040344
v  -8.097600936890 42.200817108154 2.947290658951
v  -6.601221561432 42.200820922852 -5.539067745209
v  1.496369600296 42.200824737549 -8.486344337463
v  8.097580909729 42.200824737549 -2.947265863419
v  1.932312965393 41.372718811035 -10.958695411682
v  10.456672668457 41.372718811035 -3.805903673172
v  8.524349212646 41.372714996338 7.152811050415
v  -1.932330131531 41.372711181641 10.958722114563
v  -10.456691741943 41.372711181641 3.805927991867
v  -8.524369239807 41.372714996338 -7.152783393860
v  10.456671714783 44.374977111816 -3.805902719498
v  6.194491863251 44.374977111816 -7.382299900055
v  1.932312488556 44.374977111816 -10.958694458008
v  8.524348258972 44.374973297119 7.152812004089
v  9.490509986877 44.374973297119 1.673454403877
v  -1.932330608368 44.374969482422 10.958723068237
v  3.296008348465 44.374973297119 9.055767059326
v  -10.456692695618 44.374969482422 3.805928945541
v  -6.194511890411 44.374969482422 7.382325649261
v  -8.524370193481 44.374973297119 -7.152782440186
v  -9.490531921387 44.374973297119 -1.673427224159
v  -3.296029329300 44.374973297119 -9.055739402771
v  4.796974658966 44.374977111816 -5.716804504395
v  1.496369123459 44.374977111816 -8.486343383789
v  7.349390029907 44.374973297119 1.295915484428
v  8.097579956055 44.374977111816 -2.947265148163
v  2.552406549454 44.374973297119 7.012734413147
v  6.601200103760 44.374973297119 5.539096832275
v  -4.796994686127 44.374969482422 5.716831684113
v  -1.496387481689 44.374969482422 8.486371994019
v  -7.349411964417 44.374973297119 -1.295888066292
v  -8.097601890564 44.374969482422 2.947291374207
v  -2.552427053452 44.374973297119 -7.012705802917
v  -6.601222515106 44.374973297119 -5.539066791534
v  -3.296029806137 46.549121856689 -9.055738449097
v  1.932312011719 46.549125671387 -10.958693504333
v  1.496368646622 46.549125671387 -8.486342430115
v  -2.552427768707 46.549121856689 -7.012705326080
v  6.194491386414 46.549125671387 -7.382299423218
v  10.456670761108 46.549125671387 -3.805902242661
v  8.097579956055 46.549125671387 -2.947264671326
v  4.796974182129 46.549125671387 -5.716804027557
v  9.490509033203 46.549121856689 1.673454999924
v  8.524348258972 46.549121856689 7.152812480927
v  6.601199626923 46.549121856689 5.539097309113
v  7.349389076233 46.549121856689 1.295916318893
v  3.296007871628 46.549121856689 9.055768013000
v  -1.932331085205 46.549118041992 10.958724021912
v  -1.496387958527 46.549118041992 8.486372947693
v  2.552406072617 46.549121856689 7.012734889984
v  -6.194512367249 46.549118041992 7.382326126099
v  -10.456693649292 46.549118041992 3.805929422379
v  -8.097601890564 46.549118041992 2.947291851044
v  -4.796995162964 46.549118041992 5.716832160950
v  -9.490532875061 46.549121856689 -1.673426628113
v  -8.524371147156 46.549121856689 -7.152781963348
v  -6.601222991943 46.549121856689 -5.539066314697
v  -7.349412441254 46.549121856689 -1.295887231827
# 72 vertices

g Rook
f 3 2 1 
f 5 4 2 
f 7 6 4 
f 9 8 6 
f 11 10 8 
f 12 1 10 
f 10 1 2 
f 10 2 4 
f 10 4 6 
f 8 10 6 
f 9 11 8 
f 11 12 10 
f 12 3 1 
f 3 5 2 
f 5 7 4 
f 7 9 6 
f 15 14 13 
f 17 16 15 
f 17 15 13 
f 17 13 18 
f 19 11 9 
f 20 12 11 
f 21 3 12 
f 22 5 3 
f 23 7 5 
f 24 9 7 
f 19 20 11 
f 20 21 12 
f 21 22 3 
f 22 23 5 
f 23 24 7 
f 24 19 9 
f 25 20 19 
f 26 25 19 
f 27 26 19 
f 28 21 20 
f 29 28 20 
f 25 29 20 
f 30 22 21 
f 31 30 21 
f 28 31 21 
f 32 23 22 
f 33 32 22 
f 30 33 22 
f 34 24 23 
f 35 34 23 
f 32 35 23 
f 27 19 24 
f 36 27 24 
f 34 36 24 
f 38 37 26 
f 26 27 38 
f 40 39 29 
f 29 25 40 
f 42 41 31 
f 31 28 42 
f 44 43 33 
f 33 30 44 
f 46 45 35 
f 35 32 46 
f 48 47 36 
f 36 34 48 
f 18 40 37 
f 18 37 38 
f 17 18 38 
f 13 42 39 
f 13 39 40 
f 18 13 40 
f 14 44 41 
f 14 41 42 
f 13 14 42 
f 15 46 43 
f 15 43 44 
f 14 15 44 
f 16 48 45 
f 16 45 46 
f 15 16 46 
f 17 38 47 
f 17 47 48 
f 16 17 48 
f 51 50 49 
f 49 52 51 
f 55 54 53 
f 53 56 55 
f 59 58 57 
f 57 60 59 
f 63 62 61 
f 61 64 63 
f 67 66 65 
f 65 68 67 
f 71 70 69 
f 69 72 71 
f 51 38 27 
f 27 50 51 
f 52 47 38 
f 38 51 52 
f 49 36 47 
f 47 52 49 
f 50 27 36 
f 36 49 50 
f 55 40 25 
f 25 54 55 
f 56 37 40 
f 40 55 56 
f 53 26 37 
f 37 56 53 
f 54 25 26 
f 26 53 54 
f 59 42 28 
f 28 58 59 
f 60 39 42 
f 42 59 60 
f 57 29 39 
f 39 60 57 
f 58 28 29 
f 29 57 58 
f 63 44 30 
f 30 62 63 
f 64 41 44 
f 44 63 64 
f 61 31 41 
f 41 64 61 
f 62 30 31 
f 31 61 62 
f 67 46 32 
f 32 66 67 
f 68 43 46 
f 46 67 68 
f 65 33 43 
f 43 68 65 
f 66 32 33 
f 33 65 66 
f 71 48 34 
f 34 70 71 
f 72 45 48 
f 48 71 72 
f 69 35 45 
f 45 72 69 
f 70 34 35 
f 35 69 70 
# 140 faces

