# 3ds Max Wavefront OBJ Exporter v0.94b - (c)2007 guruware
# File Created: 22.07.2017 20:33:40

#
# object Knight
#

v  -2.679753303528 32.861339569092 -5.746718406677
v  1.350385069847 0.000006523764 -14.792130470276
v  7.701283454895 34.747844696045 -1.844550251961
v  5.331422805786 41.515777587891 -5.791191101074
v  0.271718382835 36.418754577637 -14.260746955872
v  -6.144590377808 33.118804931641 -13.177091598511
v  -3.624204158783 36.418758392334 -19.574985504150
v  -5.893431663513 33.037532806396 -19.440216064453
v  -7.679584503174 31.398368835449 -16.468902587891
v  0.674424529076 50.291461944580 -5.492290019989
v  3.911891460419 52.977184295654 8.389149665833
v  -2.227523565292 56.279609680176 -4.776876926422
v  6.328206062317 48.473697662354 1.099385023117
v  7.446305274963 42.614273071289 4.316836357117
v  -11.919345855713 -0.000001737860 -8.604363441467
v  13.600827217102 0.000004719598 -6.441370010376
v  -8.088479995728 40.524669647217 -17.345769882202
v  -9.739119529724 33.037532806396 -20.885589599609
v  -9.054028511047 31.972597122192 -19.416410446167
v  12.067914009094 -0.000005449556 8.191718101501
v  8.884210586548 12.545801162720 18.531250000000
v  7.308318138123 36.679039001465 15.672799110413
v  -9.915600776672 37.558727264404 -21.264049530029
v  -5.422296524048 47.793048858643 -11.628107070923
v  -6.363330841064 34.747837066650 4.713875770569
v  -10.373722076416 39.335720062256 -7.403009414673
v  -7.863319873810 41.515769958496 0.361612558365
v  -4.640893936157 50.291461944580 -3.013719081879
v  -3.225561618805 48.473690032959 5.554379463196
v  -1.479546666145 42.614269256592 8.479024887085
v  -13.452258110046 -0.000011907012 6.028721809387
v  -1.201818108559 -0.000013711182 14.379488945007
v  -12.665736198425 36.418750762939 -15.358853340149
v  -11.099050521851 36.418746948242 -8.958477020264
v  -11.103860855103 33.037532806396 -17.010557174683
# 35 vertices

g Knight
f 3 2 1 
f 5 4 1 
f 7 5 6 
f 9 8 6 
f 12 11 10 
f 11 14 13 
f 15 1 2 
f 4 3 1 
f 3 16 2 
f 5 10 4 
f 7 17 5 
f 4 14 3 
f 8 18 7 
f 9 19 8 
f 10 13 4 
f 4 13 14 
f 11 13 10 
f 22 21 20 
f 20 3 22 
f 11 22 14 
f 7 23 17 
f 5 1 6 
f 5 17 24 
f 18 23 7 
f 5 24 10 
f 15 25 1 
f 27 26 1 
f 11 12 28 
f 30 11 29 
f 25 27 1 
f 31 25 15 
f 28 26 27 
f 30 27 25 
f 29 28 27 
f 29 27 30 
f 29 11 28 
f 2 16 20 
f 31 15 2 
f 31 2 20 
f 31 20 32 
f 21 22 32 
f 30 25 22 
f 22 11 30 
f 17 26 24 
f 24 26 28 
f 19 18 8 
f 24 28 10 
f 28 12 10 
f 8 7 6 
f 31 32 25 
f 3 20 16 
f 3 14 22 
f 25 32 22 
f 34 33 6 
f 35 9 6 
f 17 33 34 
f 18 35 33 
f 19 9 35 
f 23 33 17 
f 1 34 6 
f 23 18 33 
f 18 19 35 
f 33 35 6 
f 26 34 1 
f 26 17 34 
f 20 21 32 
# 66 faces

