# 3ds Max Wavefront OBJ Exporter v0.94b - (c)2007 guruware
# File Created: 22.07.2017 20:36:43

#
# object Bishop
#

v  14.538123130798 -0.000003814697 -2.563460826874
v  9.489083290100 -0.000008793209 11.308654785156
v  5.405833244324 39.216541290283 1.967577219009
v  -5.049039840698 -0.000008793209 13.872116088867
v  0.998958408833 39.216537475586 5.665383338928
v  -14.538123130798 -0.000003814697 2.563459157944
v  -4.406872272491 39.216541290283 3.697818756104
v  -9.489083290100 0.000001163814 -11.308654785156
v  -5.405826091766 39.216541290283 -1.967548847198
v  5.049045562744 0.000001163813 -13.872113227844
v  -0.998952507973 39.216545104980 -5.665352821350
v  4.406878948212 39.216541290283 -3.697788238525
v  -6.434591293335 51.129756927490 -7.668441295624
v  3.423785209656 51.129756927490 -9.406734466553
v  9.858383178711 51.129753112793 -1.738271713257
v  6.434600830078 51.129749298096 7.668475627899
v  -3.423778533936 51.129749298096 9.406771659851
v  -9.858374595642 51.129753112793 1.738312721252
v  -1.332919836044 57.417533874512 -7.559392452240
v  5.880185127258 57.417530059814 -4.934032917023
v  7.213110446930 57.417530059814 2.625383377075
v  1.332930803299 57.417526245117 7.559433460236
v  -5.880178451538 57.417530059814 4.934074878693
v  -7.213102340698 57.417530059814 -2.625338554382
v  2.634679555893 59.620662689209 -2.210731506348
v  -0.597226202488 59.620662689209 -3.387051105499
v  3.231910228729 59.620662689209 1.176342964172
v  0.597235858440 59.620662689209 3.387094974518
v  -2.634672164917 59.620662689209 2.210775852203
v  -3.231902360916 59.620662689209 -1.176297187805
v  1.489390373230 61.779369354248 -4.092023372650
v  4.288512706757 61.779369354248 -0.756154835224
v  2.799126625061 61.779369354248 3.335892200470
v  -1.489380002022 61.779369354248 4.092069625854
v  -4.288505077362 61.779369354248 0.756200253963
v  -2.799118995667 61.779369354248 -3.335845947266
v  0.000004259539 63.246601104736 0.000024028854
# 37 vertices

g Bishop
f 3 2 1 
f 5 4 2 
f 7 6 4 
f 9 8 6 
f 11 10 8 
f 12 1 10 
f 10 1 2 
f 10 2 4 
f 10 4 6 
f 8 10 6 
f 9 11 8 
f 11 12 10 
f 12 3 1 
f 3 5 2 
f 5 7 4 
f 7 9 6 
f 13 11 9 
f 14 12 11 
f 15 3 12 
f 16 5 3 
f 17 7 5 
f 18 9 7 
f 14 15 12 
f 15 16 3 
f 16 17 5 
f 17 18 7 
f 18 13 9 
f 13 14 11 
f 19 14 13 
f 20 15 14 
f 21 16 15 
f 22 17 16 
f 23 18 17 
f 24 13 18 
f 19 20 14 
f 20 21 15 
f 21 22 16 
f 22 23 17 
f 23 24 18 
f 24 19 13 
f 25 20 19 
f 19 26 25 
f 27 21 20 
f 20 25 27 
f 28 22 21 
f 21 27 28 
f 29 23 22 
f 22 28 29 
f 30 24 23 
f 23 29 30 
f 26 19 24 
f 24 30 26 
f 31 25 26 
f 32 27 25 
f 33 28 27 
f 34 29 28 
f 35 30 29 
f 36 26 30 
f 36 31 26 
f 31 32 25 
f 32 33 27 
f 33 34 28 
f 34 35 29 
f 35 36 30 
f 37 32 31 
f 37 33 32 
f 37 34 33 
f 37 35 34 
f 37 36 35 
f 37 31 36 
# 70 faces

