# 3ds Max Wavefront OBJ Exporter v0.94b - (c)2007 guruware
# File Created: 22.07.2017 20:37:16

#
# object Queen
#

v  15.482442855835 -0.000003814697 -2.729965925217
v  10.105440139771 -0.000009116586 12.043207168579
v  6.654674053192 43.702175140381 2.422122001648
v  -5.377002239227 -0.000009116586 14.773172378540
v  1.229733347893 43.702171325684 6.974184513092
v  -15.482442855835 -0.000003814697 2.729964017868
v  -5.424937725067 43.702175140381 4.552076816559
v  -10.105440139771 0.000001487192 -12.043207168579
v  -6.654666423798 43.702175140381 -2.422089576721
v  5.377008438110 0.000001487190 -14.773169517517
v  -1.229726433754 43.702178955078 -6.974149703979
v  5.424945354462 43.702175140381 -4.552041530609
v  -5.807915210724 45.991191864014 -6.921601295471
v  3.090340137482 45.991191864014 -8.490598678589
v  8.898261070251 45.991188049316 -1.568976640701
v  5.807924270630 45.991184234619 6.921633720398
v  -3.090333461761 45.991184234619 8.490632057190
v  -8.898252487183 45.991188049316 1.569013714790
v  -1.339677810669 48.154968261719 -7.597729206085
v  5.910003662109 48.154964447021 -4.959054470062
v  7.249686717987 48.154964447021 2.638695001602
v  1.339687585831 48.154960632324 7.597764492035
v  -5.909998416901 48.154964447021 4.959091186523
v  -7.249680042267 48.154964447021 -2.638656854630
v  4.073858737946 62.506858825684 -11.192766189575
v  11.730170249939 62.506855010986 -2.068313598633
v  7.656316280365 62.506851196289 9.124482154846
v  -4.073843479156 62.506851196289 11.192814826965
v  -11.730160713196 62.506855010986 2.068358659744
v  -7.656309127808 62.506858825684 -9.124427795410
v  3.390608787537 65.997772216797 -2.845023632050
v  4.159192085266 65.997772216797 1.513848781586
v  0.768586874008 65.997772216797 4.358899593353
v  -3.390598058701 65.997772216797 2.845075368881
v  -4.159183502197 65.997772216797 -1.513800144196
v  -0.768578648567 65.997772216797 -4.358848571777
v  5.156395435333 67.830718994141 -0.909179210663
v  3.365595817566 67.830718994141 4.010987758636
v  -1.790796756744 67.830718994141 4.920193672180
v  -5.156385421753 67.830718994141 0.909233272076
v  -3.365586280823 67.830718994141 -4.010937690735
v  1.790804505348 67.830718994141 -4.920141696930
v  0.000004654952 69.947982788086 0.000026628446
# 43 vertices

g Queen
f 3 2 1 
f 5 4 2 
f 7 6 4 
f 9 8 6 
f 11 10 8 
f 12 1 10 
f 10 1 2 
f 10 2 4 
f 10 4 6 
f 8 10 6 
f 9 11 8 
f 11 12 10 
f 12 3 1 
f 3 5 2 
f 5 7 4 
f 7 9 6 
f 13 11 9 
f 14 12 11 
f 15 3 12 
f 16 5 3 
f 17 7 5 
f 18 9 7 
f 14 15 12 
f 15 16 3 
f 16 17 5 
f 17 18 7 
f 18 13 9 
f 13 14 11 
f 19 14 13 
f 20 15 14 
f 21 16 15 
f 22 17 16 
f 23 18 17 
f 24 13 18 
f 19 20 14 
f 20 21 15 
f 21 22 16 
f 22 23 17 
f 23 24 18 
f 24 19 13 
f 25 20 19 
f 26 21 20 
f 27 22 21 
f 28 23 22 
f 29 24 23 
f 30 19 24 
f 31 26 25 
f 32 27 26 
f 33 28 27 
f 34 29 28 
f 35 30 29 
f 36 25 30 
f 36 31 25 
f 31 32 26 
f 32 33 27 
f 33 34 28 
f 34 35 29 
f 35 36 30 
f 37 32 31 
f 38 33 32 
f 39 34 33 
f 40 35 34 
f 41 36 35 
f 42 31 36 
f 30 25 19 
f 25 26 20 
f 26 27 21 
f 27 28 22 
f 28 29 23 
f 29 30 24 
f 41 42 36 
f 42 37 31 
f 37 38 32 
f 38 39 33 
f 39 40 34 
f 40 41 35 
f 43 38 37 
f 43 39 38 
f 43 40 39 
f 43 41 40 
f 43 42 41 
f 43 37 42 
# 82 faces

