# 3ds Max Wavefront OBJ Exporter v0.94b - (c)2007 guruware
# File Created: 22.07.2017 20:38:09

#
# object King
#

v  16.761169433594 -0.000003814697 0.000006266069
v  8.380578994751 -0.000009467281 14.515603065491
v  6.598434448242 49.246509552002 3.809629201889
v  -8.380591392517 -0.000009467281 14.515597343445
v  -0.000003425502 49.246505737305 7.619236469269
v  -16.761169433594 -0.000003814697 -0.000008253320
v  -6.598437309265 49.246509552002 3.809621810913
v  -8.380578994751 0.000001837886 -14.515603065491
v  -6.598430633545 49.246509552002 -3.809592485428
v  8.380597114563 0.000001837884 -14.515592575073
v  0.000004325125 49.246513366699 -7.619196891785
v  6.598438262939 49.246509552002 -3.809583425522
v  -4.860627174377 51.556457519531 -8.418848991394
v  4.860638618469 51.556457519531 -8.418844223022
v  9.721268653870 51.556453704834 0.000028759374
v  4.860630989075 51.556449890137 8.418886184692
v  -4.860638141632 51.556449890137 8.418881416321
v  -9.721266746521 51.556453704834 0.000013355028
v  0.000006977462 53.740020751953 -8.300453186035
v  7.188421726227 53.740016937256 -4.150210380554
v  7.188417434692 53.740016937256 4.150264739990
v  -0.000003045638 53.740013122559 8.300489425659
v  -7.188422679901 53.740016937256 4.150252342224
v  -7.188417434692 53.740016937256 -4.150219440460
v  6.349501132965 68.071746826172 -10.997609138489
v  12.698985099792 68.071731567383 0.000033294131
v  6.349481105804 68.071731567383 10.997677803040
v  -6.349493980408 68.071731567383 10.997659683228
v  -12.698979377747 68.071731567383 0.000016286514
v  -6.349483966827 68.071746826172 -10.997620582581
v  4.086673736572 71.562637329102 -2.359409093857
v  4.086670398712 71.562637329102 2.359471559525
v  -0.000004832527 71.562637329102 4.718907833099
v  -4.086672306061 71.562637329102 2.359466314316
v  -4.086670398712 71.562637329102 -2.359417438507
v  0.000003896593 71.562637329102 -4.718853950500
v  5.582267284393 73.395584106445 0.000034105826
v  2.791129827499 73.395584106445 4.834415912628
v  -2.791139364243 73.395584106445 4.834409713745
v  -5.582266807556 73.395584106445 0.000025108169
v  -2.791129112244 73.395584106445 -4.834360122681
v  2.791137456894 73.395584106445 -4.834353446960
v  3.312038421631 75.031799316406 1.912239909172
v  -0.000003056598 75.031799316406 3.824443578720
v  -3.312042951584 75.031799316406 1.912231802940
v  -3.312038660049 75.031799316406 -1.912180185318
v  0.000004275589 75.031799316406 -3.824386358261
v  3.312041997910 75.031799316406 -1.912175178528
v  -0.000000968066 75.322113037109 1.351945281029
v  1.170793175697 75.322113037109 0.675988614559
v  -1.170794963837 75.322113037109 0.675985753536
v  -1.170793175697 75.322113037109 -0.675929486752
v  0.000001625603 75.322113037109 -1.351887106895
v  1.170794487000 75.322113037109 -0.675928056240
v  0.715196132660 78.236312866211 1.238789319992
v  -0.715198457241 78.236312866211 1.238788127899
v  -1.430395245552 78.236312866211 0.000028136530
v  -0.715196609497 78.236312866211 -1.238728165627
v  0.715199172497 78.236312866211 -1.238727569580
v  1.430395126343 78.236312866211 0.000031812906
v  -0.000001834516 80.352416992188 1.430426001549
v  -3.494207859039 78.021224975586 0.980359017849
v  -4.335588455200 78.021224975586 0.000025972426
v  -4.110141277313 80.510665893555 0.841407775879
v  -3.494206190109 78.021224975586 -0.980304300785
v  -4.110139846802 80.510665893555 -0.841353178024
v  0.000001027656 80.352416992188 -1.430364131927
v  3.494208574295 78.021224975586 -0.980297565460
v  4.335587501526 78.021224975586 0.000034451357
v  4.110142230988 80.510665893555 -0.841344177723
v  3.494205474854 78.021224975586 0.980366051197
v  4.110139846802 80.510665893555 0.841415762901
v  -1.238758802414 80.352416992188 0.715227305889
v  -0.860509753227 82.457656860352 1.490473866463
v  -1.238757848740 80.352416992188 -0.715168178082
v  -1.721014738083 82.457656860352 0.000030362227
v  -0.860505759716 82.457656860352 -1.490413188934
v  1.238759636879 80.352416992188 -0.715165019035
v  0.860508620739 82.457656860352 -1.490410566330
v  1.238757967949 80.352416992188 0.715229630470
v  1.721015810966 82.457656860352 0.000034129505
v  0.860506474972 82.457656860352 1.490475296974
v  0.000000013469 82.907669067383 0.000032043587
# 83 vertices

g King
f 3 2 1 
f 5 4 2 
f 7 6 4 
f 9 8 6 
f 11 10 8 
f 12 1 10 
f 10 1 2 
f 10 2 4 
f 10 4 6 
f 8 10 6 
f 9 11 8 
f 11 12 10 
f 12 3 1 
f 3 5 2 
f 5 7 4 
f 7 9 6 
f 13 11 9 
f 14 12 11 
f 15 3 12 
f 16 5 3 
f 17 7 5 
f 18 9 7 
f 14 15 12 
f 15 16 3 
f 16 17 5 
f 17 18 7 
f 18 13 9 
f 13 14 11 
f 19 14 13 
f 20 15 14 
f 21 16 15 
f 22 17 16 
f 23 18 17 
f 24 13 18 
f 19 20 14 
f 20 21 15 
f 21 22 16 
f 22 23 17 
f 23 24 18 
f 24 19 13 
f 25 20 19 
f 26 21 20 
f 27 22 21 
f 28 23 22 
f 29 24 23 
f 30 19 24 
f 31 26 25 
f 32 27 26 
f 33 28 27 
f 34 29 28 
f 35 30 29 
f 36 25 30 
f 36 31 25 
f 31 32 26 
f 32 33 27 
f 33 34 28 
f 34 35 29 
f 35 36 30 
f 37 32 31 
f 38 33 32 
f 39 34 33 
f 40 35 34 
f 41 36 35 
f 42 31 36 
f 30 25 19 
f 25 26 20 
f 26 27 21 
f 27 28 22 
f 28 29 23 
f 29 30 24 
f 41 42 36 
f 42 37 31 
f 37 38 32 
f 38 39 33 
f 39 40 34 
f 40 41 35 
f 43 38 37 
f 44 39 38 
f 45 40 39 
f 46 41 40 
f 47 42 41 
f 48 37 42 
f 47 48 42 
f 48 43 37 
f 43 44 38 
f 44 45 39 
f 45 46 40 
f 46 47 41 
f 49 44 43 
f 43 50 49 
f 51 45 44 
f 44 49 51 
f 52 46 45 
f 45 51 52 
f 53 47 46 
f 46 52 53 
f 54 48 47 
f 47 53 54 
f 50 43 48 
f 48 54 50 
f 55 49 50 
f 56 51 49 
f 57 52 51 
f 58 53 52 
f 59 54 53 
f 60 50 54 
f 61 56 55 
f 64 63 62 
f 66 65 63 
f 67 59 58 
f 70 69 68 
f 72 71 69 
f 74 73 61 
f 76 75 73 
f 77 67 75 
f 79 78 67 
f 81 80 78 
f 82 61 80 
f 59 60 54 
f 60 55 50 
f 70 72 69 
f 79 81 78 
f 55 56 49 
f 80 61 55 
f 81 82 80 
f 56 57 51 
f 61 73 56 
f 82 74 61 
f 57 58 52 
f 64 66 63 
f 74 76 73 
f 58 59 53 
f 75 67 58 
f 76 77 75 
f 67 78 59 
f 77 79 67 
f 62 57 56 
f 63 65 57 
f 65 75 58 
f 64 73 75 
f 75 66 64 
f 64 62 73 
f 68 60 59 
f 69 71 60 
f 71 80 55 
f 70 78 80 
f 80 72 70 
f 70 68 78 
f 65 66 75 
f 68 59 78 
f 71 72 80 
f 62 56 73 
f 62 63 57 
f 65 58 57 
f 68 69 60 
f 71 55 60 
f 83 76 74 
f 83 77 76 
f 83 79 77 
f 83 81 79 
f 83 82 81 
f 83 74 82 
# 162 faces

