# 3ds Max Wavefront OBJ Exporter v0.94b - (c)2007 guruware
# File Created: 22.07.2017 20:32:49

#
# object Pawn
#

v  110.509910583496 0.000003814697 -2.802934646606
v  109.638351440430 0.000000442270 7.159013748169
v  108.459121704102 26.095825195313 2.036752462387
v  100.575271606445 0.000000442270 11.385196685791
v  104.421676635742 26.095825195313 7.802822113037
v  92.383750915527 0.000003814698 5.649430274963
v  97.409385681152 26.095825195313 7.189325332642
v  93.255310058594 0.000007187125 -4.312517166138
v  94.434547424316 26.095829010010 0.809760034084
v  102.318389892578 0.000007187124 -8.538698196411
v  98.472000122070 26.095829010010 -4.956307888031
v  105.484283447266 26.095829010010 -4.342810630798
v  93.636421203613 33.532634735107 -4.045654773712
v  102.277847290039 33.532634735107 -8.075215339661
v  110.088264465332 33.532630920410 -2.606298446655
v  109.257255554199 33.532627105713 6.892171859741
v  100.615829467773 33.532627105713 10.921733856201
v  92.805412292480 33.532630920410 5.452819347382
v  98.356964111328 36.402702331543 -5.202992439270
v  105.640403747559 36.402698516846 -4.565772533417
v  108.730278015137 36.402698516846 2.060482501984
v  104.536705017090 36.402694702148 8.049512863159
v  97.253265380859 36.402698516846 7.412292957306
v  94.163398742676 36.402698516846 0.786039590836
v  101.446838378906 37.364749908447 1.423260807991
# 25 vertices

g Pawn
f 3 2 1 
f 5 4 2 
f 7 6 4 
f 9 8 6 
f 11 10 8 
f 12 1 10 
f 10 1 2 
f 10 2 4 
f 10 4 6 
f 8 10 6 
f 9 11 8 
f 11 12 10 
f 12 3 1 
f 3 5 2 
f 5 7 4 
f 7 9 6 
f 13 11 9 
f 14 12 11 
f 15 3 12 
f 16 5 3 
f 17 7 5 
f 18 9 7 
f 14 15 12 
f 15 16 3 
f 16 17 5 
f 17 18 7 
f 18 13 9 
f 13 14 11 
f 19 14 13 
f 20 15 14 
f 21 16 15 
f 22 17 16 
f 23 18 17 
f 24 13 18 
f 19 20 14 
f 20 21 15 
f 21 22 16 
f 22 23 17 
f 23 24 18 
f 24 19 13 
f 25 20 19 
f 25 21 20 
f 25 22 21 
f 25 23 22 
f 25 24 23 
f 25 19 24 
# 46 faces

#
# object Rook
#

v  77.369430541992 -0.000003814697 10.523392677307
v  64.277786254883 -0.000008513109 15.288358688354
v  69.697235107422 32.356052398682 9.811210632324
v  53.605381011963 -0.000008513109 6.333141803741
v  61.058456420898 32.356048583984 8.287960052490
v  56.024623870850 -0.000003814697 -7.387042045593
v  58.058246612549 32.356052398682 0.044933438301
v  69.116271972656 0.000000883715 -12.152007102966
v  63.696811676025 32.356052398682 -6.674838066101
v  79.788681030273 0.000000883713 -3.196784019470
v  72.335586547852 32.356056213379 -5.151586055756
v  75.335800170898 32.356052398682 3.091442584991
v  73.298233032227 42.200820922852 7.107272148132
v  65.200645446777 42.200817108154 10.054547309875
v  58.599426269531 42.200817108154 4.515466690063
v  60.095806121826 42.200820922852 -3.970891475677
v  68.193397521973 42.200824737549 -6.918168067932
v  74.794609069824 42.200824737549 -1.379089593887
v  68.629341125488 41.372718811035 -9.390519142151
v  77.153701782227 41.372718811035 -2.237727403641
v  75.221374511719 41.372714996338 8.720987319946
v  64.764701843262 41.372711181641 12.526898384094
v  56.240337371826 41.372711181641 5.374104499817
v  58.172660827637 41.372714996338 -5.584607124329
v  77.153701782227 44.374977111816 -2.237726449966
v  72.891517639160 44.374977111816 -5.814123630524
v  68.629341125488 44.374977111816 -9.390518188477
v  75.221374511719 44.374973297119 8.720988273621
v  76.187538146973 44.374973297119 3.241630554199
v  64.764701843262 44.374969482422 12.526899337769
v  69.993034362793 44.374973297119 10.623943328857
v  56.240337371826 44.374969482422 5.374105453491
v  60.502517700195 44.374969482422 8.950502395630
v  58.172660827637 44.374973297119 -5.584606170654
v  57.206497192383 44.374973297119 -0.105250954628
v  63.401000976563 44.374973297119 -7.487563133240
v  71.494003295898 44.374977111816 -4.148628234863
v  68.193397521973 44.374977111816 -6.918167114258
v  74.046417236328 44.374973297119 2.864091873169
v  74.794609069824 44.374977111816 -1.379088878632
v  69.249435424805 44.374973297119 8.580910682678
v  73.298233032227 44.374973297119 7.107273101807
v  61.900035858154 44.374969482422 7.285007953644
v  65.200637817383 44.374969482422 10.054548263550
v  59.347618103027 44.374973297119 0.272288203239
v  58.599426269531 44.374969482422 4.515467643738
v  64.144599914551 44.374973297119 -5.444529533386
v  60.095806121826 44.374973297119 -3.970890522003
v  63.401000976563 46.549121856689 -7.487562179565
v  68.629341125488 46.549125671387 -9.390517234802
v  68.193397521973 46.549125671387 -6.918166160583
v  64.144599914551 46.549121856689 -5.444529056549
v  72.891517639160 46.549125671387 -5.814123153687
v  77.153701782227 46.549125671387 -2.237725973129
v  74.794609069824 46.549125671387 -1.379088401794
v  71.494003295898 46.549125671387 -4.148627758026
v  76.187538146973 46.549121856689 3.241631269455
v  75.221374511719 46.549121856689 8.720989227295
v  73.298225402832 46.549121856689 7.107273578644
v  74.046417236328 46.549121856689 2.864092588425
v  69.993034362793 46.549121856689 10.623944282532
v  64.764694213867 46.549118041992 12.526900291443
v  65.200637817383 46.549118041992 10.054549217224
v  69.249435424805 46.549121856689 8.580911636353
v  60.502517700195 46.549118041992 8.950502395630
v  56.240333557129 46.549118041992 5.374105453491
v  58.599426269531 46.549118041992 4.515468120575
v  61.900032043457 46.549118041992 7.285008430481
v  57.206497192383 46.549121856689 -0.105250358582
v  58.172657012939 46.549121856689 -5.584605693817
v  60.095806121826 46.549121856689 -3.970890045166
v  59.347618103027 46.549121856689 0.272289037704
# 72 vertices

g Rook
f 28 27 26 
f 30 29 27 
f 32 31 29 
f 34 33 31 
f 36 35 33 
f 37 26 35 
f 35 26 27 
f 35 27 29 
f 35 29 31 
f 33 35 31 
f 34 36 33 
f 36 37 35 
f 37 28 26 
f 28 30 27 
f 30 32 29 
f 32 34 31 
f 40 39 38 
f 42 41 40 
f 42 40 38 
f 42 38 43 
f 44 36 34 
f 45 37 36 
f 46 28 37 
f 47 30 28 
f 48 32 30 
f 49 34 32 
f 44 45 36 
f 45 46 37 
f 46 47 28 
f 47 48 30 
f 48 49 32 
f 49 44 34 
f 50 45 44 
f 51 50 44 
f 52 51 44 
f 53 46 45 
f 54 53 45 
f 50 54 45 
f 55 47 46 
f 56 55 46 
f 53 56 46 
f 57 48 47 
f 58 57 47 
f 55 58 47 
f 59 49 48 
f 60 59 48 
f 57 60 48 
f 52 44 49 
f 61 52 49 
f 59 61 49 
f 63 62 51 
f 51 52 63 
f 65 64 54 
f 54 50 65 
f 67 66 56 
f 56 53 67 
f 69 68 58 
f 58 55 69 
f 71 70 60 
f 60 57 71 
f 73 72 61 
f 61 59 73 
f 43 65 62 
f 43 62 63 
f 42 43 63 
f 38 67 64 
f 38 64 65 
f 43 38 65 
f 39 69 66 
f 39 66 67 
f 38 39 67 
f 40 71 68 
f 40 68 69 
f 39 40 69 
f 41 73 70 
f 41 70 71 
f 40 41 71 
f 42 63 72 
f 42 72 73 
f 41 42 73 
f 76 75 74 
f 74 77 76 
f 80 79 78 
f 78 81 80 
f 84 83 82 
f 82 85 84 
f 88 87 86 
f 86 89 88 
f 92 91 90 
f 90 93 92 
f 96 95 94 
f 94 97 96 
f 76 63 52 
f 52 75 76 
f 77 72 63 
f 63 76 77 
f 74 61 72 
f 72 77 74 
f 75 52 61 
f 61 74 75 
f 80 65 50 
f 50 79 80 
f 81 62 65 
f 65 80 81 
f 78 51 62 
f 62 81 78 
f 79 50 51 
f 51 78 79 
f 84 67 53 
f 53 83 84 
f 85 64 67 
f 67 84 85 
f 82 54 64 
f 64 85 82 
f 83 53 54 
f 54 82 83 
f 88 69 55 
f 55 87 88 
f 89 66 69 
f 69 88 89 
f 86 56 66 
f 66 89 86 
f 87 55 56 
f 56 86 87 
f 92 71 57 
f 57 91 92 
f 93 68 71 
f 71 92 93 
f 90 58 68 
f 68 93 90 
f 91 57 58 
f 58 90 91 
f 96 73 59 
f 59 95 96 
f 97 70 73 
f 73 96 97 
f 94 60 70 
f 70 97 94 
f 95 59 60 
f 60 94 95 
# 140 faces

#
# object Knight
#

v  21.775537490845 32.861339569092 -4.290419578552
v  25.805675506592 0.000006523764 -13.335831642151
v  32.156574249268 34.747844696045 -0.388251423836
v  29.786712646484 41.515777587891 -4.334892272949
v  24.727008819580 36.418754577637 -12.804448127747
v  18.310699462891 33.118804931641 -11.720792770386
v  20.831087112427 36.418758392334 -18.118686676025
v  18.561859130859 33.037532806396 -17.983917236328
v  16.775707244873 31.398368835449 -15.012603759766
v  25.129714965820 50.291461944580 -4.035991191864
v  28.367181777954 52.977184295654 9.845448493958
v  22.227767944336 56.279609680176 -3.320578098297
v  30.783496856689 48.473697662354 2.555683851242
v  31.901596069336 42.614273071289 5.773135185242
v  12.535944938660 -0.000001737860 -7.148064613342
v  38.056118011475 0.000004719598 -4.985071182251
v  16.366809844971 40.524669647217 -15.889471054077
v  14.716171264648 33.037532806396 -19.429290771484
v  15.401262283325 31.972597122192 -17.960111618042
v  36.523204803467 -0.000005449556 9.648016929626
v  33.339500427246 12.545801162720 19.987548828125
v  31.763608932495 36.679039001465 17.129096984863
v  14.539690017700 37.558727264404 -19.807750701904
v  19.032995223999 47.793048858643 -10.171808242798
v  18.091960906982 34.747837066650 6.170174598694
v  14.081568717957 39.335720062256 -5.946710586548
v  16.591970443726 41.515769958496 1.817911386490
v  19.814395904541 50.291461944580 -1.557420253754
v  21.229728698730 48.473690032959 7.010678291321
v  22.975744247437 42.614269256592 9.935323715210
v  11.003032684326 -0.000011907012 7.485020637512
v  23.253473281860 -0.000013711182 15.835787773132
v  11.789554595947 36.418750762939 -13.902554512024
v  13.356240272522 36.418746948242 -7.502178192139
v  13.351429939270 33.037532806396 -15.554257392883
# 35 vertices

g Knight
f 100 99 98 
f 102 101 98 
f 104 102 103 
f 106 105 103 
f 109 108 107 
f 108 111 110 
f 112 98 99 
f 101 100 98 
f 100 113 99 
f 102 107 101 
f 104 114 102 
f 101 111 100 
f 105 115 104 
f 106 116 105 
f 107 110 101 
f 101 110 111 
f 108 110 107 
f 119 118 117 
f 117 100 119 
f 108 119 111 
f 104 120 114 
f 102 98 103 
f 102 114 121 
f 115 120 104 
f 102 121 107 
f 112 122 98 
f 124 123 98 
f 108 109 125 
f 127 108 126 
f 122 124 98 
f 128 122 112 
f 125 123 124 
f 127 124 122 
f 126 125 124 
f 126 124 127 
f 126 108 125 
f 99 113 117 
f 128 112 99 
f 128 99 117 
f 128 117 129 
f 118 119 129 
f 127 122 119 
f 119 108 127 
f 114 123 121 
f 121 123 125 
f 116 115 105 
f 121 125 107 
f 125 109 107 
f 105 104 103 
f 128 129 122 
f 100 117 113 
f 100 111 119 
f 122 129 119 
f 131 130 103 
f 132 106 103 
f 114 130 131 
f 115 132 130 
f 116 106 132 
f 120 130 114 
f 98 131 103 
f 120 115 130 
f 115 116 132 
f 130 132 103 
f 123 131 98 
f 123 114 131 
f 117 118 129 
# 66 faces

#
# object Bishop
#

v  -4.976651191711 -0.000003814697 -0.120406627655
v  -10.025691032410 -0.000008793209 13.751708984375
v  -14.108941078186 39.216541290283 4.410631179810
v  -24.563814163208 -0.000008793209 16.315170288086
v  -18.515815734863 39.216537475586 8.108437538147
v  -34.052898406982 -0.000003814697 5.006513595581
v  -23.921646118164 39.216541290283 6.140872955322
v  -29.003856658936 0.000001163814 -8.865600585938
v  -24.920600891113 39.216541290283 0.475505352020
v  -14.465728759766 0.000001163813 -11.429059028625
v  -20.513727188110 39.216545104980 -3.222298622131
v  -15.107894897461 39.216541290283 -1.254734039307
v  -25.949365615845 51.129756927490 -5.225387096405
v  -16.090988159180 51.129756927490 -6.963680267334
v  -9.656391143799 51.129753112793 0.704782485962
v  -13.080173492432 51.129749298096 10.111530303955
v  -22.938552856445 51.129749298096 11.849825859070
v  -29.373149871826 51.129753112793 4.181366920471
v  -20.847694396973 57.417533874512 -5.116338253021
v  -13.634589195251 57.417530059814 -2.490978717804
v  -12.301664352417 57.417530059814 5.068437576294
v  -18.181842803955 57.417526245117 10.002487182617
v  -25.394952774048 57.417530059814 7.377129077911
v  -26.727876663208 57.417530059814 -0.182284355164
v  -16.880094528198 59.620662689209 0.232322692871
v  -20.112001419067 59.620662689209 -0.943996906281
v  -16.282863616943 59.620662689209 3.619397163391
v  -18.917537689209 59.620662689209 5.830149173737
v  -22.149446487427 59.620662689209 4.653830051422
v  -22.746677398682 59.620662689209 1.266757011414
v  -18.025382995605 61.779369354248 -1.648969173431
v  -15.226261138916 61.779369354248 1.686899423599
v  -16.715648651123 61.779369354248 5.778946399689
v  -21.004154205322 61.779369354248 6.535123825073
v  -23.803279876709 61.779369354248 3.199254512787
v  -22.313892364502 61.779369354248 -0.892791748047
v  -19.514770507813 63.246601104736 2.443078279495
# 37 vertices

g Bishop
f 135 134 133 
f 137 136 134 
f 139 138 136 
f 141 140 138 
f 143 142 140 
f 144 133 142 
f 142 133 134 
f 142 134 136 
f 142 136 138 
f 140 142 138 
f 141 143 140 
f 143 144 142 
f 144 135 133 
f 135 137 134 
f 137 139 136 
f 139 141 138 
f 145 143 141 
f 146 144 143 
f 147 135 144 
f 148 137 135 
f 149 139 137 
f 150 141 139 
f 146 147 144 
f 147 148 135 
f 148 149 137 
f 149 150 139 
f 150 145 141 
f 145 146 143 
f 151 146 145 
f 152 147 146 
f 153 148 147 
f 154 149 148 
f 155 150 149 
f 156 145 150 
f 151 152 146 
f 152 153 147 
f 153 154 148 
f 154 155 149 
f 155 156 150 
f 156 151 145 
f 157 152 151 
f 151 158 157 
f 159 153 152 
f 152 157 159 
f 160 154 153 
f 153 159 160 
f 161 155 154 
f 154 160 161 
f 162 156 155 
f 155 161 162 
f 158 151 156 
f 156 162 158 
f 163 157 158 
f 164 159 157 
f 165 160 159 
f 166 161 160 
f 167 162 161 
f 168 158 162 
f 168 163 158 
f 163 164 157 
f 164 165 159 
f 165 166 160 
f 166 167 161 
f 167 168 162 
f 169 164 163 
f 169 165 164 
f 169 166 165 
f 169 167 166 
f 169 168 167 
f 169 163 168 
# 70 faces

#
# object King
#

v  -102.774307250977 -0.000003814697 -14.414043426514
v  -93.160491943359 -0.000009467281 -0.684092044830
v  -103.616569519043 49.246509552002 -3.593460083008
v  -100.244079589844 -0.000009467281 14.506685256958
v  -102.952514648438 49.246505737305 3.996764898300
v  -116.941467285156 -0.000003814697 15.967509269714
v  -109.193817138672 49.246509552002 8.366964340210
v  -126.555282592773 0.000001837886 2.237558841705
v  -116.099166870117 49.246509552002 5.146939754486
v  -119.471687316895 0.000001837884 -12.953222274780
v  -116.763221740723 49.246513366699 -2.443282127380
v  -110.521919250488 49.246509552002 -6.813482284546
v  -119.542144775391 51.556457519531 1.623998761177
v  -115.433753967285 51.556457519531 -7.186458587646
v  -105.749473571777 51.556453704834 -8.033716201782
v  -100.173591613770 51.556449890137 -0.070519804955
v  -104.281982421875 51.556449890137 8.739940643311
v  -113.966262817383 51.556453704834 9.587199211121
v  -117.380653381348 53.740020751953 -2.731195926666
v  -110.581298828125 53.740016937256 -7.492144584656
v  -103.058517456055 53.740016937256 -3.984207153320
v  -102.335090637207 53.740013122559 4.284674644470
v  -109.134437561035 53.740016937256 9.045629501343
v  -116.657218933105 53.740016937256 5.537693500519
v  -117.141693115234 68.071746826172 -9.625659942627
v  -104.491035461426 68.071731567383 -10.732440948486
v  -97.207199096680 68.071731567383 -0.330032110214
v  -102.574035644531 68.071731567383 11.179141998291
v  -115.224693298340 68.071731567383 12.285925865173
v  -122.508522033691 68.071746826172 1.883525609970
v  -110.269134521484 71.562637329102 -3.924180030823
v  -105.992378234863 71.562637329102 -1.929892301559
v  -105.581108093262 71.562637329102 2.771034479141
v  -109.446586608887 71.562637329102 5.477670192719
v  -113.723350524902 71.562637329102 3.483381748199
v  -114.134620666504 71.562637329102 -1.217543959618
v  -107.498687744141 73.395584106445 -4.282504558563
v  -104.296836853027 73.395584106445 0.290222793818
v  -106.656013488770 73.395584106445 5.349474430084
v  -112.217033386230 73.395584106445 5.835995674133
v  -115.418884277344 73.395584106445 1.263266682625
v  -113.059715270996 73.395584106445 -3.795982360840
v  -106.725082397461 75.031799316406 -1.416845321655
v  -106.391769409180 75.031799316406 2.393015861511
v  -109.524543762207 75.031799316406 4.586607933044
v  -112.990638732910 75.031799316406 2.970337629318
v  -113.323959350586 75.031799316406 -0.839525938034
v  -110.191177368164 75.031799316406 -3.033116340637
v  -108.632606506348 75.322113037109 1.348091125488
v  -108.750434875488 75.322113037109 0.001319527626
v  -109.740036010742 75.322113037109 2.123517990112
v  -110.965286254883 75.322113037109 1.552172303200
v  -111.083114624023 75.322113037109 0.205399751663
v  -109.975685119629 75.322113037109 -0.570026397705
v  -108.432907104492 78.236312866211 0.652080535889
v  -109.037422180176 78.236312866211 1.948457717896
v  -110.462371826172 78.236312866211 2.073123693466
v  -111.282814025879 78.236312866211 0.901412487030
v  -110.678298950195 78.236312866211 -0.394966125488
v  -109.253349304199 78.236312866211 -0.519631385803
v  -108.561485290527 80.352416992188 1.381259202957
v  -110.446098327637 78.021224975586 4.357878684998
v  -111.690162658691 78.021224975586 4.706121921539
v  -110.832336425781 80.510665893555 4.857380867004
v  -112.223060607910 78.021224975586 3.529265403748
v  -112.357429504395 80.510665893555 4.146214485168
v  -111.154235839844 80.352416992188 0.172234535217
v  -109.269622802734 78.021224975586 -2.804386854172
v  -108.025558471680 78.021224975586 -3.152628898621
v  -108.883384704590 80.510665893555 -3.303887844086
v  -107.492660522461 78.021224975586 -1.975771665573
v  -107.358283996582 80.510665893555 -2.592720985413
v  -109.733192443848 80.352416992188 2.201698303223
v  -108.870727539063 82.457656860352 2.186521530151
v  -111.029571533203 80.352416992188 1.597186088562
v  -110.585189819336 82.457656860352 2.336515426636
v  -111.572326660156 82.457656860352 0.926740765572
v  -109.982521057129 80.352416992188 -0.648205876350
v  -110.844993591309 82.457656860352 -0.633026957512
v  -108.686149597168 80.352416992188 -0.043693482876
v  -109.130523681641 82.457656860352 -0.783022165298
v  -108.143394470215 82.457656860352 0.626751720905
v  -109.857856750488 82.907669067383 0.776746928692
# 83 vertices

g King
f 172 171 170 
f 174 173 171 
f 176 175 173 
f 178 177 175 
f 180 179 177 
f 181 170 179 
f 179 170 171 
f 179 171 173 
f 179 173 175 
f 177 179 175 
f 178 180 177 
f 180 181 179 
f 181 172 170 
f 172 174 171 
f 174 176 173 
f 176 178 175 
f 182 180 178 
f 183 181 180 
f 184 172 181 
f 185 174 172 
f 186 176 174 
f 187 178 176 
f 183 184 181 
f 184 185 172 
f 185 186 174 
f 186 187 176 
f 187 182 178 
f 182 183 180 
f 188 183 182 
f 189 184 183 
f 190 185 184 
f 191 186 185 
f 192 187 186 
f 193 182 187 
f 188 189 183 
f 189 190 184 
f 190 191 185 
f 191 192 186 
f 192 193 187 
f 193 188 182 
f 194 189 188 
f 195 190 189 
f 196 191 190 
f 197 192 191 
f 198 193 192 
f 199 188 193 
f 200 195 194 
f 201 196 195 
f 202 197 196 
f 203 198 197 
f 204 199 198 
f 205 194 199 
f 205 200 194 
f 200 201 195 
f 201 202 196 
f 202 203 197 
f 203 204 198 
f 204 205 199 
f 206 201 200 
f 207 202 201 
f 208 203 202 
f 209 204 203 
f 210 205 204 
f 211 200 205 
f 199 194 188 
f 194 195 189 
f 195 196 190 
f 196 197 191 
f 197 198 192 
f 198 199 193 
f 210 211 205 
f 211 206 200 
f 206 207 201 
f 207 208 202 
f 208 209 203 
f 209 210 204 
f 212 207 206 
f 213 208 207 
f 214 209 208 
f 215 210 209 
f 216 211 210 
f 217 206 211 
f 216 217 211 
f 217 212 206 
f 212 213 207 
f 213 214 208 
f 214 215 209 
f 215 216 210 
f 218 213 212 
f 212 219 218 
f 220 214 213 
f 213 218 220 
f 221 215 214 
f 214 220 221 
f 222 216 215 
f 215 221 222 
f 223 217 216 
f 216 222 223 
f 219 212 217 
f 217 223 219 
f 224 218 219 
f 225 220 218 
f 226 221 220 
f 227 222 221 
f 228 223 222 
f 229 219 223 
f 230 225 224 
f 233 232 231 
f 235 234 232 
f 236 228 227 
f 239 238 237 
f 241 240 238 
f 243 242 230 
f 245 244 242 
f 246 236 244 
f 248 247 236 
f 250 249 247 
f 251 230 249 
f 228 229 223 
f 229 224 219 
f 239 241 238 
f 248 250 247 
f 224 225 218 
f 249 230 224 
f 250 251 249 
f 225 226 220 
f 230 242 225 
f 251 243 230 
f 226 227 221 
f 233 235 232 
f 243 245 242 
f 227 228 222 
f 244 236 227 
f 245 246 244 
f 236 247 228 
f 246 248 236 
f 231 226 225 
f 232 234 226 
f 234 244 227 
f 233 242 244 
f 244 235 233 
f 233 231 242 
f 237 229 228 
f 238 240 229 
f 240 249 224 
f 239 247 249 
f 249 241 239 
f 239 237 247 
f 234 235 244 
f 237 228 247 
f 240 241 249 
f 231 225 242 
f 231 232 226 
f 234 227 226 
f 237 238 229 
f 240 224 229 
f 252 245 243 
f 252 246 245 
f 252 248 246 
f 252 250 248 
f 252 251 250 
f 252 243 251 
# 162 faces

#
# object Queen
#

v  -49.092407226563 -0.000003814697 -1.953232526779
v  -54.469413757324 -0.000009116586 12.819940567017
v  -57.920177459717 43.702175140381 3.198855400085
v  -69.951850891113 -0.000009116586 15.549905776978
v  -63.345119476318 43.702171325684 7.750917911530
v  -80.057296752930 -0.000003814697 3.506697416306
v  -69.999786376953 43.702175140381 5.328810214996
v  -74.680290222168 0.000001487192 -11.266473770142
v  -71.229515075684 43.702175140381 -1.645356178284
v  -59.197845458984 0.000001487190 -13.996436119080
v  -65.804580688477 43.702178955078 -6.197416305542
v  -59.149906158447 43.702175140381 -3.775308132172
v  -70.382766723633 45.991191864014 -6.144867897034
v  -61.484512329102 45.991191864014 -7.713865280151
v  -55.676589965820 45.991188049316 -0.792243242264
v  -58.766929626465 45.991184234619 7.698367118835
v  -67.665184020996 45.991184234619 9.267365455627
v  -73.473106384277 45.991188049316 2.345746994019
v  -65.914527893066 48.154968261719 -6.820995807648
v  -58.664848327637 48.154964447021 -4.182321071625
v  -57.325164794922 48.154964447021 3.415428400040
v  -63.235164642334 48.154960632324 8.374498367310
v  -70.484848022461 48.154964447021 5.735824584961
v  -71.824531555176 48.154964447021 -1.861923456192
v  -60.500991821289 62.506858825684 -10.416032791138
v  -52.844680786133 62.506855010986 -1.291580200195
v  -56.918537139893 62.506851196289 9.901215553284
v  -68.648696899414 62.506851196289 11.969548225403
v  -76.305015563965 62.506855010986 2.845092058182
v  -72.231163024902 62.506858825684 -8.347694396973
v  -61.184242248535 65.997772216797 -2.068290233612
v  -60.415660858154 65.997772216797 2.290582180023
v  -63.806266784668 65.997772216797 5.135632991791
v  -67.965446472168 65.997772216797 3.621808767319
v  -68.734039306641 65.997772216797 -0.737066745758
v  -65.343429565430 65.997772216797 -3.582115173340
v  -59.418457031250 67.830718994141 -0.132445812225
v  -61.209255218506 67.830718994141 4.787721157074
v  -66.365646362305 67.830718994141 5.696927070618
v  -69.731239318848 67.830718994141 1.685966730118
v  -67.940437316895 67.830718994141 -3.234204292297
v  -62.784046173096 67.830718994141 -4.143408298492
v  -64.574844360352 69.947982788086 0.776760041714
# 43 vertices

g Queen
f 255 254 253 
f 257 256 254 
f 259 258 256 
f 261 260 258 
f 263 262 260 
f 264 253 262 
f 262 253 254 
f 262 254 256 
f 262 256 258 
f 260 262 258 
f 261 263 260 
f 263 264 262 
f 264 255 253 
f 255 257 254 
f 257 259 256 
f 259 261 258 
f 265 263 261 
f 266 264 263 
f 267 255 264 
f 268 257 255 
f 269 259 257 
f 270 261 259 
f 266 267 264 
f 267 268 255 
f 268 269 257 
f 269 270 259 
f 270 265 261 
f 265 266 263 
f 271 266 265 
f 272 267 266 
f 273 268 267 
f 274 269 268 
f 275 270 269 
f 276 265 270 
f 271 272 266 
f 272 273 267 
f 273 274 268 
f 274 275 269 
f 275 276 270 
f 276 271 265 
f 277 272 271 
f 278 273 272 
f 279 274 273 
f 280 275 274 
f 281 276 275 
f 282 271 276 
f 283 278 277 
f 284 279 278 
f 285 280 279 
f 286 281 280 
f 287 282 281 
f 288 277 282 
f 288 283 277 
f 283 284 278 
f 284 285 279 
f 285 286 280 
f 286 287 281 
f 287 288 282 
f 289 284 283 
f 290 285 284 
f 291 286 285 
f 292 287 286 
f 293 288 287 
f 294 283 288 
f 282 277 271 
f 277 278 272 
f 278 279 273 
f 279 280 274 
f 280 281 275 
f 281 282 276 
f 293 294 288 
f 294 289 283 
f 289 290 284 
f 290 291 285 
f 291 292 286 
f 292 293 287 
f 295 290 289 
f 295 291 290 
f 295 292 291 
f 295 293 292 
f 295 294 293 
f 295 289 294 
# 82 faces

